# xmcd
#
# Track frame offsets: 
#        150
#        24180
#        39884
#        56286
#        76937
#        100179
#        117065
#        137397
#        157173
#        175873
#        192291
#        214735
#        239678
#        263350
#        280836
#        298928
#        315951
#        332854
#
# Disc length: 4704 seconds
#
# Revision: 0
# Processed by: cddbd v1.5.2PL0 Copyright (c) Steve Scherf et al.
# Submitted via: ExactAudioCopy v0.95b4
#
DISCID=ee125e12
DTITLE=Bengt Johansson - 50 Sånger (Original)
DYEAR=2009
DGENRE=Country
TTITLE0=Du är mitt ljus
TTITLE1=Där vattnet rinner fram
TTITLE2=Jämna väg
TTITLE3=Gud den högste
TTITLE4=Ropa till Gud
TTITLE5=Ut ur ensamheten
TTITLE6=Vilken vän jag fann
TTITLE7=Faller mot dig
TTITLE8=Därför vi prisar
TTITLE9=Helig mark
TTITLE10=Vi vill säga tack
TTITLE11=Skapa i mig Gud
TTITLE12=Kom var mitt centrum
TTITLE13=Gud söker kontakt
TTITLE14=Upphöjd vare du
TTITLE15=Den bästa resan
TTITLE16=Hosianna
TTITLE17=Min befriare
EXTD=
EXTT0=
EXTT1=
EXTT2=
EXTT3=
EXTT4=
EXTT5=
EXTT6=
EXTT7=
EXTT8=
EXTT9=
EXTT10=
EXTT11=
EXTT12=
EXTT13=
EXTT14=
EXTT15=
EXTT16=
EXTT17=
PLAYORDER=
